<svg preserveAspectRatio="none" width="100%" height="100%" overflow="visible" style="display: block;" viewBox="0 0 13.0001 14.3369" fill="none" xmlns="http://www.w3.org/2000/svg">
<path id="Vector" d="M5.36674 13.1667C5.47833 13.3696 5.64237 13.5389 5.84173 13.6568C6.04109 13.7747 6.26846 13.8369 6.50007 13.8369C6.73169 13.8369 6.95905 13.7747 7.15841 13.6568C7.35777 13.5389 7.52182 13.3696 7.6334 13.1667M2.50004 4.5C2.50004 3.43913 2.92147 2.42172 3.67161 1.67157C4.42176 0.921427 5.43917 0.5 6.50004 0.5C7.56091 0.5 8.57832 0.921427 9.32847 1.67157C10.0786 2.42172 10.5 3.43913 10.5 4.5C10.5 9.16667 12.5 10.5 12.5 10.5H0.500039C0.500039 10.5 2.50004 9.16667 2.50004 4.5Z" stroke="var(--stroke-0, #303030)" stroke-linecap="round" stroke-linejoin="round"/>
</svg>
