<svg preserveAspectRatio="none" width="100%" height="100%" overflow="visible" style="display: block;" viewBox="0 0 14.3333 14.3333" fill="none" xmlns="http://www.w3.org/2000/svg">
<path id="Vector" d="M10.5 11.1667H11.1667M7.16667 11.1667H7.83333M3.83333 11.1667H4.5M0.5 12.5C0.5 12.8536 0.640476 13.1928 0.890524 13.4428C1.14057 13.6929 1.47971 13.8333 1.83333 13.8333H12.5C12.8536 13.8333 13.1928 13.6929 13.4428 13.4428C13.6929 13.1928 13.8333 12.8536 13.8333 12.5V4.5L9.16667 7.83333V4.5L4.5 7.83333V1.83333C4.5 1.47971 4.35952 1.14057 4.10948 0.890524C3.85943 0.640476 3.52029 0.5 3.16667 0.5H1.83333C1.47971 0.5 1.14057 0.640476 0.890524 0.890524C0.640476 1.14057 0.5 1.47971 0.5 1.83333V12.5Z" stroke="var(--stroke-0, #303030)" stroke-linecap="round" stroke-linejoin="round"/>
</svg>
