<svg preserveAspectRatio="none" width="100%" height="100%" overflow="visible" style="display: block;" viewBox="0 0 11.6667 14.3333" fill="none" xmlns="http://www.w3.org/2000/svg">
<path id="Vector" d="M8.5 1.83333H9.83333C10.187 1.83333 10.5261 1.97381 10.7761 2.22386C11.0262 2.47391 11.1667 2.81304 11.1667 3.16667V12.5C11.1667 12.8536 11.0262 13.1928 10.7761 13.4428C10.5261 13.6929 10.187 13.8333 9.83333 13.8333H1.83333C1.47971 13.8333 1.14057 13.6929 0.890524 13.4428C0.640476 13.1928 0.5 12.8536 0.5 12.5V3.16667C0.5 2.81304 0.640476 2.47391 0.890524 2.22386C1.14057 1.97381 1.47971 1.83333 1.83333 1.83333H3.16667M5.83333 6.5H8.5M5.83333 9.83333H8.5M3.16667 6.5H3.17333M3.16667 9.83333H3.17333M3.83333 0.5H7.83333C8.20152 0.5 8.5 0.798477 8.5 1.16667V2.5C8.5 2.86819 8.20152 3.16667 7.83333 3.16667H3.83333C3.46514 3.16667 3.16667 2.86819 3.16667 2.5V1.16667C3.16667 0.798477 3.46514 0.5 3.83333 0.5Z" stroke="var(--stroke-0, #303030)" stroke-linecap="round" stroke-linejoin="round"/>
</svg>
