<svg preserveAspectRatio="none" width="100%" height="100%" overflow="visible" style="display: block;" viewBox="0 0 14.3333 13.8904" fill="none" xmlns="http://www.w3.org/2000/svg">
<path id="Vector" d="M7.16667 11.6104L4.52 13.197C4.31263 13.3216 4.07526 13.3874 3.83333 13.3874C3.59141 13.3874 3.35404 13.3216 3.14667 13.197L1.14667 11.997C0.94984 11.8788 0.786887 11.7117 0.673593 11.512C0.560299 11.3122 0.500504 11.0866 0.500001 10.857V8.69702C0.500504 8.4674 0.560299 8.2418 0.673593 8.04208C0.786887 7.84235 0.94984 7.67527 1.14667 7.55702L3.83333 5.94368M7.16667 11.6104V7.94368M7.16667 11.6104L9.81333 13.197C10.0207 13.3216 10.2581 13.3874 10.5 13.3874C10.7419 13.3874 10.9793 13.3216 11.1867 13.197L13.1867 11.997C13.3835 11.8788 13.5464 11.7117 13.6597 11.512C13.773 11.3122 13.8328 11.0866 13.8333 10.857V8.69702C13.8328 8.4674 13.773 8.2418 13.6597 8.04208C13.5464 7.84235 13.3835 7.67527 13.1867 7.55702L10.5 5.94368M7.16667 7.94368L3.83333 5.94368M7.16667 7.94368L3.83334 9.94362M7.16667 7.94368L10.5 5.94368M7.16667 7.94368L10.5 9.94368M7.16667 7.94368L7.16651 4.27695M3.83333 5.94368V3.03041C3.83384 2.80079 3.89363 2.5752 4.00693 2.37547C4.12022 2.17575 4.28317 2.00867 4.48 1.89041L6.48 0.690413C6.68738 0.565822 6.92474 0.5 7.16667 0.5C7.40859 0.5 7.64596 0.565822 7.85333 0.690413L9.85333 1.89041C10.0502 2.00867 10.2131 2.17575 10.3264 2.37547C10.4397 2.5752 10.4995 2.80079 10.5 3.03041V5.94368M3.83334 9.94362L0.673341 8.04362M3.83334 9.94362L3.83333 13.3904M10.5 9.94368L13.66 8.04362M10.5 9.94368V13.3904M7.16651 4.27695L4.00651 2.37695M7.16651 4.27695L10.3267 2.37695" stroke="var(--stroke-0, #F3D016)" stroke-linecap="round" stroke-linejoin="round"/>
</svg>
