<svg preserveAspectRatio="none" width="100%" height="100%" overflow="visible" style="display: block;" viewBox="0 0 14.3333 14.3333" fill="none" xmlns="http://www.w3.org/2000/svg">
<path id="Vector" d="M1.83333 13.8333H12.5C12.8536 13.8333 13.1928 13.6929 13.4428 13.4428C13.6929 13.1928 13.8333 12.8536 13.8333 12.5V1.83333C13.8333 1.47971 13.6929 1.14057 13.4428 0.890524C13.1928 0.640476 12.8536 0.5 12.5 0.5H4.5C4.14638 0.5 3.80724 0.640476 3.55719 0.890524C3.30714 1.14057 3.16667 1.47971 3.16667 1.83333V12.5C3.16667 12.8536 3.02619 13.1928 2.77614 13.4428C2.52609 13.6929 2.18696 13.8333 1.83333 13.8333ZM1.83333 13.8333C1.47971 13.8333 1.14057 13.6929 0.890524 13.4428C0.640476 13.1928 0.5 12.8536 0.5 12.5V6.5C0.5 5.76667 1.1 5.16667 1.83333 5.16667H3.16667M11.1667 8.5H5.83333M9.16667 11.1667H5.83333M5.83333 3.16667H11.1667V5.83333H5.83333V3.16667Z" stroke="var(--stroke-0, #303030)" stroke-linecap="round" stroke-linejoin="round"/>
</svg>
