<svg preserveAspectRatio="none" width="100%" height="100%" overflow="visible" style="display: block;" viewBox="0 0 14.3337 14.3303" fill="none" xmlns="http://www.w3.org/2000/svg">
<path id="Vector" d="M13.3069 9.76005C12.8828 10.763 12.2195 11.6469 11.3749 12.3343C10.5302 13.0216 9.53012 13.4917 8.46189 13.7032C7.39367 13.9148 6.28988 13.8615 5.24703 13.5479C4.20418 13.2344 3.25402 12.6701 2.47962 11.9045C1.70521 11.1389 1.13014 10.1952 0.804692 9.15602C0.479239 8.11682 0.41331 7.01371 0.612667 5.94314C0.812025 4.87257 1.2706 3.86714 1.9483 3.01474C2.626 2.16234 3.50219 1.48893 4.50027 1.05339M13.8337 7.16667C13.8337 6.29119 13.6612 5.42428 13.3262 4.61544C12.9912 3.80661 12.5001 3.07168 11.881 2.45262C11.262 1.83356 10.5271 1.3425 9.71822 1.00747C8.90938 0.672438 8.04247 0.5 7.16699 0.5V7.16667H13.8337Z" stroke="var(--stroke-0, #4CAF50)" stroke-linecap="round" stroke-linejoin="round"/>
</svg>
