<svg preserveAspectRatio="none" width="100%" height="100%" overflow="visible" style="display: block;" viewBox="0 0 14.3333 14.3333" fill="none" xmlns="http://www.w3.org/2000/svg">
<path id="Vector" d="M3.16667 11.1667H1.83333C1.47971 11.1667 1.14057 11.0262 0.890524 10.7761C0.640476 10.5261 0.5 10.187 0.5 9.83333V6.5C0.5 6.14638 0.640476 5.80724 0.890524 5.55719C1.14057 5.30714 1.47971 5.16667 1.83333 5.16667H12.5C12.8536 5.16667 13.1928 5.30714 13.4428 5.55719C13.6929 5.80724 13.8333 6.14638 13.8333 6.5V9.83333C13.8333 10.187 13.6929 10.5261 13.4428 10.7761C13.1928 11.0262 12.8536 11.1667 12.5 11.1667H11.1667M3.16667 5.16667V1.16667C3.16667 0.989856 3.2369 0.820286 3.36193 0.695262C3.48695 0.570238 3.65652 0.5 3.83333 0.5H10.5C10.6768 0.5 10.8464 0.570238 10.9714 0.695262C11.0964 0.820286 11.1667 0.989856 11.1667 1.16667V5.16667M3.83333 8.5H10.5C10.8682 8.5 11.1667 8.79848 11.1667 9.16667V13.1667C11.1667 13.5349 10.8682 13.8333 10.5 13.8333H3.83333C3.46514 13.8333 3.16667 13.5349 3.16667 13.1667V9.16667C3.16667 8.79848 3.46514 8.5 3.83333 8.5Z" stroke="var(--stroke-0, #303030)" stroke-linecap="round" stroke-linejoin="round"/>
</svg>
