<svg preserveAspectRatio="none" width="100%" height="100%" overflow="visible" style="display: block;" viewBox="0 0 11.6667 14.3333" fill="none" xmlns="http://www.w3.org/2000/svg">
<path id="Vector" d="M7.16667 0.5V3.16667C7.16667 3.52029 7.30714 3.85943 7.55719 4.10948C7.80724 4.35952 8.14638 4.5 8.5 4.5H11.1667M3.16667 11.1667V10.5M5.83333 11.1667V7.16667M8.5 11.1667V9.16667M7.83333 0.5H1.83333C1.47971 0.5 1.14057 0.640476 0.890524 0.890524C0.640476 1.14057 0.5 1.47971 0.5 1.83333V12.5C0.5 12.8536 0.640476 13.1928 0.890524 13.4428C1.14057 13.6929 1.47971 13.8333 1.83333 13.8333H9.83333C10.187 13.8333 10.5261 13.6929 10.7761 13.4428C11.0262 13.1928 11.1667 12.8536 11.1667 12.5V3.83333L7.83333 0.5Z" stroke="var(--stroke-0, #9114CC)" stroke-linecap="round" stroke-linejoin="round"/>
</svg>
