<svg preserveAspectRatio="none" width="100%" height="100%" overflow="visible" style="display: block;" viewBox="0 0 11.6667 11.6667" fill="none" xmlns="http://www.w3.org/2000/svg">
<path id="Vector" d="M11.1667 2.5H5.16667M7.16667 9.16667H1.16667M7.16667 9.16667C7.16667 10.2712 8.0621 11.1667 9.16667 11.1667C10.2712 11.1667 11.1667 10.2712 11.1667 9.16667C11.1667 8.0621 10.2712 7.16667 9.16667 7.16667C8.0621 7.16667 7.16667 8.0621 7.16667 9.16667ZM4.5 2.5C4.5 3.60457 3.60457 4.5 2.5 4.5C1.39543 4.5 0.5 3.60457 0.5 2.5C0.5 1.39543 1.39543 0.5 2.5 0.5C3.60457 0.5 4.5 1.39543 4.5 2.5Z" stroke="var(--stroke-0, #303030)" stroke-linecap="round" stroke-linejoin="round"/>
</svg>
