<svg preserveAspectRatio="none" width="100%" height="100%" overflow="visible" style="display: block;" viewBox="0 0 14.3334 13" fill="none" xmlns="http://www.w3.org/2000/svg">
<path id="Vector" d="M7.16672 7.16667H7.17339M9.83339 3.16667V1.83333C9.83339 1.47971 9.69291 1.14057 9.44286 0.890524C9.19281 0.640476 8.85368 0.5 8.50005 0.5H5.83339C5.47977 0.5 5.14063 0.640476 4.89058 0.890524C4.64053 1.14057 4.50005 1.47971 4.50005 1.83333V3.16667M13.8334 7.83333C11.8552 9.13932 9.53709 9.83553 7.16672 9.83553C4.79636 9.83553 2.47819 9.13932 0.500055 7.83333M1.83339 3.16667H12.5001C13.2364 3.16667 13.8334 3.76362 13.8334 4.5V11.1667C13.8334 11.903 13.2364 12.5 12.5001 12.5H1.83339C1.09701 12.5 0.500055 11.903 0.500055 11.1667V4.5C0.500055 3.76362 1.09701 3.16667 1.83339 3.16667Z" stroke="var(--stroke-0, #14CCAB)" stroke-linecap="round" stroke-linejoin="round"/>
</svg>
